<!DOCTYPE svg PUBLIC "-//W3C//DTD SVG 20010904//EN" "http://www.w3.org/TR/2001/REC-SVG-20010904/DTD/svg10.dtd">
<svg version="1.0" xmlns="http://www.w3.org/2000/svg" width="272px" height="68px" viewBox="0 0 2720 680" preserveAspectRatio="xMidYMid meet">
<g id="layer101" fill="#ffffff" stroke="none">
 <path d="M1032 570 c22 -55 38 -104 34 -107 -12 -12 -260 26 -397 60 -110 28 -241 72 -361 122 -12 5 -18 3 -18 -7 0 -21 215 -124 347 -167 l113 -36 0 -64 c0 -64 -1 -66 -83 -195 -46 -72 -87 -137 -91 -143 -5 -10 4 -13 33 -13 l40 0 68 110 c37 61 70 110 73 110 3 0 34 -50 70 -110 l65 -109 43 -1 43 0 -34 53 c-19 28 -61 95 -95 148 -56 86 -62 101 -62 148 0 45 2 52 18 47 28 -8 132 -24 204 -32 l67 -6 25 -62 c15 -33 48 -115 74 -181 43 -106 51 -120 72 -120 20 0 28 10 48 60 118 297 122 304 155 309 18 2 77 12 132 20 55 9 103 16 108 16 4 0 7 -76 7 -170 l0 -170 -75 0 -75 0 0 -30 0 -30 185 0 185 0 0 30 0 30 -75 0 -75 0 2 182 3 181 85 29 c115 38 340 148 340 166 0 10 -6 12 -17 7 -121 -49 -252 -93 -358 -120 -126 -32 -353 -70 -363 -61 -4 5 18 63 63 169 l16 38 -43 -3 -42 -3 -41 -105 -41 -105 -124 0 -123 0 -41 105 -42 105 -41 3 -42 3 41 -101z m336 -203 c-37 -100 -84 -217 -88 -217 -4 0 -37 82 -87 216 -3 8 23 12 87 13 69 0 91 -3 88 -12z"/>
 <path d="M0 270 l0 -250 35 0 35 0 0 100 0 100 125 0 125 0 0 -100 0 -100 40 0 40 0 0 250 0 250 -40 0 -40 0 0 -120 0 -120 -125 0 -125 0 0 120 0 120 -35 0 -35 0 0 -250z"/>
 <path d="M2250 300 l0 -220 -75 0 -75 0 0 -30 0 -30 185 0 185 0 0 30 0 30 -75 0 -75 0 0 220 0 220 -35 0 -35 0 0 -220z"/>
 <path d="M2577 132 c-21 -23 -22 -76 -1 -96 8 -9 31 -16 49 -16 58 0 86 69 45 110 -25 25 -72 26 -93 2z m57 -17 c-4 -8 -10 -15 -14 -15 -4 0 -10 7 -14 15 -4 10 1 15 14 15 13 0 18 -5 14 -15z m27 -51 c-6 -13 -16 -24 -23 -23 -10 0 -10 2 0 6 6 2 12 21 12 41 1 31 2 34 11 18 8 -13 8 -25 0 -42z m-71 14 c-1 -26 -3 -30 -10 -16 -6 9 -7 23 -4 32 9 25 14 19 14 -16z"/>
 </g>

</svg>