<?xml version="1.0" encoding="utf-8"?>
<!-- Generator: Adobe Illustrator 25.1.0, SVG Export Plug-In . SVG Version: 6.00 Build 0)  -->
<svg version="1.1" id="Layer_1" xmlns="http://www.w3.org/2000/svg" xmlns:xlink="http://www.w3.org/1999/xlink" x="0px" y="0px"
	 viewBox="0 0 100.4 100.4" style="enable-background:new 0 0 100.4 100.4;" xml:space="preserve">
<style type="text/css">
	.st0{fill:#FFFFFF;}
</style>
<g>
	<path class="st0" d="M90.2,19.8H22.3c-0.8,0-1.5,0.7-1.5,1.5v8.2c0,0.8,0.7,1.5,1.5,1.5s1.5-0.7,1.5-1.5v-6.7h64.9v37.8h-6.2
		c-0.8,0-1.5,0.7-1.5,1.5s0.7,1.5,1.5,1.5h7.7c0.8,0,1.5-0.7,1.5-1.5V21.3C91.7,20.4,91,19.8,90.2,19.8z"/>
	<path class="st0" d="M78.7,32.3H9.8c-0.8,0-1.5,0.7-1.5,1.5v44.9c0,0.8,0.7,1.5,1.5,1.5h68.8c0.8,0,1.5-0.7,1.5-1.5V33.8
		C80.2,33,79.5,32.3,78.7,32.3z M77.2,35.3v31.5l-11.2,0l-10-8.3c-0.5-0.5-1.3-0.5-1.9,0l-9.7,7.7L29.7,50.1
		c-0.3-0.3-0.7-0.5-1.1-0.5c0,0,0,0,0,0c-0.4,0-0.8,0.2-1.1,0.5L11.3,67.7V35.3H77.2z M11.3,77.2v-5.1l17.3-18.9l14.5,16
		c0.5,0.6,1.4,0.7,2,0.2l9.8-7.9l9.4,7.8c0.3,0.2,0.6,0.3,1,0.3l11.7,0v7.4L11.3,77.2L11.3,77.2z"/>
	<path class="st0" d="M64.7,51.3c3.3,0,5.9-2.7,5.9-5.9c0-3.3-2.7-5.9-5.9-5.9s-5.9,2.7-5.9,5.9S61.4,51.3,64.7,51.3z M64.7,42.4
		c1.6,0,2.9,1.3,2.9,2.9s-1.3,2.9-2.9,2.9s-2.9-1.3-2.9-2.9S63,42.4,64.7,42.4z"/>
</g>
</svg>
