<?xml version="1.0" encoding="utf-8"?>
<!-- Generator: Adobe Illustrator 25.0.1, SVG Export Plug-In . SVG Version: 6.00 Build 0)  -->
<svg version="1.1" id="Layer_1" xmlns="http://www.w3.org/2000/svg" xmlns:xlink="http://www.w3.org/1999/xlink" x="0px" y="0px"
	 viewBox="0 0 24 24" style="enable-background:new 0 0 24 24;" xml:space="preserve">
<style type="text/css">
	.st0{fill:#FFFFFF;}
</style>
<path class="st0" d="M0,1v17h4v5l7-5h13V1C24,1,0,1,0,1z M7,11c-0.8,0-1.5-0.7-1.5-1.5S6.2,8,7,8c0.8,0,1.5,0.7,1.5,1.5S7.8,11,7,11
	z M12,11c-0.8,0-1.5-0.7-1.5-1.5S11.2,8,12,8c0.8,0,1.5,0.7,1.5,1.5S12.8,11,12,11z M17,11c-0.8,0-1.5-0.7-1.5-1.5S16.2,8,17,8
	c0.8,0,1.5,0.7,1.5,1.5S17.8,11,17,11z"/>
</svg>
