<?xml version="1.0" encoding="utf-8"?>
<!-- Generator: Adobe Illustrator 25.0.1, SVG Export Plug-In . SVG Version: 6.00 Build 0)  -->
<svg version="1.1" id="Layer_1" xmlns="http://www.w3.org/2000/svg" xmlns:xlink="http://www.w3.org/1999/xlink" x="0px" y="0px"
	 viewBox="0 0 24 24" style="enable-background:new 0 0 24 24;" xml:space="preserve">
<style type="text/css">
	.st0{fill:#FFFFFF;}
</style>
<path class="st0" d="M10,19.5c0,0.8-0.7,1.5-1.5,1.5S7,20.3,7,19.5C7,18.7,7.7,18,8.5,18S10,18.7,10,19.5z M13.5,18
	c-0.8,0-1.5,0.7-1.5,1.5s0.7,1.5,1.5,1.5s1.5-0.7,1.5-1.5C15,18.7,14.3,18,13.5,18z M14.8,13l2-7H0l2.9,7C2.9,13,14.8,13,14.8,13z
	 M19.8,3l-3.4,12H3.8l0.8,2h13.2l3.5-12h1.9L24,3H19.8z"/>
</svg>
