<?xml version="1.0" encoding="utf-8"?><svg width="192" height="160" viewBox="0 0 192 160" xmlns="http://www.w3.org/2000/svg" xmlns:xlink="http://www.w3.org/1999/xlink"><svg width="32" height="32" viewBox="0 0 32 32" id="FACEBOOK" x="32" xmlns="http://www.w3.org/2000/svg"><g fill="none" fill-rule="evenodd"><circle fill="#3B5998" cx="16" cy="16" r="16"/><path d="M20.346 7.13v2.855h-1.698c-1.331 0-1.58.639-1.58 1.558v2.045h3.17l-.422 3.202h-2.748V25h-3.31v-8.21H11v-3.202h2.758v-2.359C13.758 8.493 15.435 7 17.88 7c1.168 0 2.174.087 2.467.13h-.001z" fill="#FFF"/></g></svg><svg width="32" height="32" viewBox="0 0 32 32" id="FACEBOOK_hc" x="96" y="96" xmlns="http://www.w3.org/2000/svg"><g fill="none" fill-rule="evenodd"><circle fill="#FFF" cx="16" cy="16" r="16"/><path d="M20.346 7.13v2.855h-1.698c-1.331 0-1.58.639-1.58 1.558v2.045h3.17l-.422 3.202h-2.748V25h-3.31v-8.21H11v-3.202h2.758v-2.359C13.758 8.493 15.435 7 17.88 7c1.168 0 2.174.087 2.467.13h-.001z" fill="#3B5998"/></g></svg><svg width="32" height="32" viewBox="0 0 32 32" id="GOOGLEPLUS" y="32" xmlns="http://www.w3.org/2000/svg"><g fill="none" fill-rule="evenodd"><circle fill="#DC4E41" cx="16" cy="16" r="16"/><path d="M18.225 16.132c0 3.274-2.195 5.594-5.5 5.594A5.724 5.724 0 0 1 7 16a5.724 5.724 0 0 1 5.726-5.726c1.547 0 2.836.562 3.836 1.5l-1.555 1.492c-.422-.406-1.164-.883-2.28-.883-1.953 0-3.547 1.617-3.547 3.616 0 2 1.593 3.617 3.546 3.617 2.266 0 3.117-1.633 3.25-2.468h-3.25v-1.969h5.406c.055.289.094.578.094.953zm6.773-.953v1.64h-1.633v1.633h-1.64V16.82h-1.633v-1.64h1.633v-1.633h1.64v1.633h1.633z" fill="#FFF"/></g></svg><svg width="32" height="32" viewBox="0 0 32 32" id="GOOGLEPLUS_hc" x="32" y="32" xmlns="http://www.w3.org/2000/svg"><g fill="none" fill-rule="evenodd"><circle fill="#FFF" cx="16" cy="16" r="16"/><path d="M18.225 16.132c0 3.274-2.195 5.594-5.5 5.594A5.724 5.724 0 0 1 7 16a5.724 5.724 0 0 1 5.726-5.726c1.547 0 2.836.562 3.836 1.5l-1.555 1.492c-.422-.406-1.164-.883-2.28-.883-1.953 0-3.547 1.617-3.547 3.616 0 2 1.593 3.617 3.546 3.617 2.266 0 3.117-1.633 3.25-2.468h-3.25v-1.969h5.406c.055.289.094.578.094.953zm6.773-.953v1.64h-1.633v1.633h-1.64V16.82h-1.633v-1.64h1.633v-1.633h1.64v1.633h1.633z" fill="#DC4E41"/></g></svg><svg width="32" height="32" viewBox="0 0 32 32" id="INSTAGRAM" x="64" xmlns="http://www.w3.org/2000/svg"><g fill="none" fill-rule="evenodd"><circle fill="#E4405F" cx="16" cy="16" r="16"/><path d="M18.753 15.815a2.944 2.944 0 0 0-2.938-2.938 2.944 2.944 0 0 0-2.938 2.938 2.944 2.944 0 0 0 2.938 2.938 2.944 2.944 0 0 0 2.938-2.938zm1.584 0a4.516 4.516 0 0 1-4.522 4.522 4.516 4.516 0 0 1-4.522-4.522 4.516 4.516 0 0 1 4.522-4.522 4.516 4.516 0 0 1 4.522 4.522zm1.24-4.706c0 .586-.47 1.056-1.056 1.056a1.054 1.054 0 0 1-1.055-1.056c0-.584.47-1.055 1.055-1.055s1.056.47 1.056 1.055zm-5.762-2.525c-1.286 0-4.04-.104-5.2.355-.401.161-.7.356-1.01.666a2.81 2.81 0 0 0-.665 1.01c-.46 1.16-.356 3.914-.356 5.2 0 1.285-.103 4.04.356 5.199.16.401.356.7.666 1.01.31.31.608.505 1.01.665 1.159.46 3.913.356 5.199.356s4.04.103 5.2-.356c.401-.16.7-.355 1.01-.665.31-.31.505-.609.665-1.01.46-1.16.356-3.914.356-5.2 0-1.285.103-4.04-.356-5.2a2.82 2.82 0 0 0-.666-1.01 2.81 2.81 0 0 0-1.01-.665c-1.159-.459-3.913-.355-5.199-.355zm8.815 7.231c0 1.216.012 2.422-.057 3.638-.07 1.412-.39 2.663-1.423 3.696-1.033 1.033-2.284 1.355-3.696 1.423-1.216.069-2.422.057-3.638.057-1.217 0-2.422.012-3.639-.057-1.412-.07-2.663-.39-3.695-1.423-1.033-1.033-1.355-2.284-1.423-3.696C6.989 18.237 7 17.031 7 15.815c0-1.216-.011-2.422.058-3.638.069-1.412.39-2.663 1.423-3.696 1.032-1.033 2.283-1.355 3.695-1.423 1.217-.069 2.422-.057 3.639-.057 1.216 0 2.422-.012 3.638.057 1.412.07 2.663.39 3.696 1.423 1.033 1.033 1.354 2.284 1.423 3.696.069 1.216.057 2.422.057 3.638z" fill="#FFF"/></g></svg><svg width="32" height="32" viewBox="0 0 32 32" id="INSTAGRAM_hc" x="64" y="32" xmlns="http://www.w3.org/2000/svg"><g fill="none" fill-rule="evenodd"><circle fill="#FFF" cx="16" cy="16" r="16"/><path d="M18.753 15.815a2.944 2.944 0 0 0-2.938-2.938 2.944 2.944 0 0 0-2.938 2.938 2.944 2.944 0 0 0 2.938 2.938 2.944 2.944 0 0 0 2.938-2.938zm1.584 0a4.516 4.516 0 0 1-4.522 4.522 4.516 4.516 0 0 1-4.522-4.522 4.516 4.516 0 0 1 4.522-4.522 4.516 4.516 0 0 1 4.522 4.522zm1.24-4.706c0 .586-.47 1.056-1.056 1.056a1.054 1.054 0 0 1-1.055-1.056c0-.584.47-1.055 1.055-1.055s1.056.47 1.056 1.055zm-5.762-2.525c-1.286 0-4.04-.104-5.2.355-.401.161-.7.356-1.01.666a2.81 2.81 0 0 0-.665 1.01c-.46 1.16-.356 3.914-.356 5.2 0 1.285-.103 4.04.356 5.199.16.401.356.7.666 1.01.31.31.608.505 1.01.665 1.159.46 3.913.356 5.199.356s4.04.103 5.2-.356c.401-.16.7-.355 1.01-.665.31-.31.505-.609.665-1.01.46-1.16.356-3.914.356-5.2 0-1.285.103-4.04-.356-5.2a2.82 2.82 0 0 0-.666-1.01 2.81 2.81 0 0 0-1.01-.665c-1.159-.459-3.913-.355-5.199-.355zm8.815 7.231c0 1.216.012 2.422-.057 3.638-.07 1.412-.39 2.663-1.423 3.696-1.033 1.033-2.284 1.355-3.696 1.423-1.216.069-2.422.057-3.638.057-1.217 0-2.422.012-3.639-.057-1.412-.07-2.663-.39-3.695-1.423-1.033-1.033-1.355-2.284-1.423-3.696C6.989 18.237 7 17.031 7 15.815c0-1.216-.011-2.422.058-3.638.069-1.412.39-2.663 1.423-3.696 1.032-1.033 2.283-1.355 3.695-1.423 1.217-.069 2.422-.057 3.639-.057 1.216 0 2.422-.012 3.638.057 1.412.07 2.663.39 3.696 1.423 1.033 1.033 1.354 2.284 1.423 3.696.069 1.216.057 2.422.057 3.638z" fill="#E4405F"/></g></svg><svg width="32" height="32" viewBox="0 0 32 32" id="KAKAOTALK" y="64" xmlns="http://www.w3.org/2000/svg"><g fill="none" fill-rule="evenodd"><circle fill="#FFE812" cx="16" cy="16" r="16"/><g fill-rule="nonzero"><path d="M16.003 8C11.03 8 7 11.178 7 15.098c0 2.535 1.685 4.758 4.22 6.014-.138.476-.886 3.06-.916 3.263 0 0-.018.152.08.21.1.059.216.013.216.013.283-.04 3.284-2.147 3.804-2.513.518.073 1.053.111 1.599.111 4.971 0 9.002-3.178 9.002-7.098S20.975 8 16.003 8z" fill="#FFF"/><path d="M11.025 17.576a.509.509 0 0 1-.52-.496v-3.086h-.81a.51.51 0 0 1 0-1.017h2.66a.51.51 0 0 1 0 1.017h-.81v3.086a.509.509 0 0 1-.52.496zm4.555-.006c-.217 0-.383-.089-.433-.23l-.257-.673h-1.584l-.257.673c-.05.141-.215.23-.432.23a.792.792 0 0 1-.33-.072c-.143-.066-.281-.248-.123-.738l1.242-3.27c.088-.249.353-.505.692-.513.339.008.605.264.692.514l1.242 3.268c.158.491.02.673-.122.739a.794.794 0 0 1-.33.071zm-.963-1.823l-.519-1.474-.519 1.474h1.038zm2.251 1.753a.488.488 0 0 1-.498-.476v-3.527c0-.287.238-.52.53-.52.293 0 .53.233.53.52v3.051h1.104c.275 0 .498.214.498.476a.488.488 0 0 1-.498.476h-1.666zm2.886.07a.52.52 0 0 1-.52-.52v-3.553a.52.52 0 0 1 1.039 0v1.116l1.449-1.449a.403.403 0 0 1 .288-.116c.13 0 .26.056.358.154.09.09.145.208.152.33a.405.405 0 0 1-.114.315l-1.184 1.184 1.278 1.693a.515.515 0 0 1-.101.728.515.515 0 0 1-.727-.102l-1.219-1.614-.18.18v1.134a.52.52 0 0 1-.52.52z" fill="#FFE812"/></g></g></svg><svg width="32" height="32" viewBox="0 0 32 32" id="KAKAOTALK_hc" x="32" y="64" xmlns="http://www.w3.org/2000/svg"><g fill="none" fill-rule="evenodd"><circle fill="#FFF" cx="16" cy="16" r="16"/><g fill-rule="nonzero"><path d="M16.003 8C11.03 8 7 11.178 7 15.098c0 2.535 1.685 4.758 4.22 6.014-.138.476-.886 3.06-.916 3.263 0 0-.018.152.08.21.1.059.216.013.216.013.283-.04 3.284-2.147 3.804-2.513.518.073 1.053.111 1.599.111 4.971 0 9.002-3.178 9.002-7.098S20.975 8 16.003 8z" fill="#FFE812"/><path d="M11.025 17.576a.509.509 0 0 1-.52-.496v-3.086h-.81a.51.51 0 0 1 0-1.017h2.66a.51.51 0 0 1 0 1.017h-.81v3.086a.509.509 0 0 1-.52.496zm4.555-.006c-.217 0-.383-.089-.433-.23l-.257-.673h-1.584l-.257.673c-.05.141-.215.23-.432.23a.792.792 0 0 1-.33-.072c-.143-.066-.281-.248-.123-.738l1.242-3.27c.088-.249.353-.505.692-.513.339.008.605.264.692.514l1.242 3.268c.158.491.02.673-.122.739a.794.794 0 0 1-.33.071zm-.963-1.823l-.519-1.474-.519 1.474h1.038zm2.251 1.753a.488.488 0 0 1-.498-.476v-3.527c0-.287.238-.52.53-.52.293 0 .53.233.53.52v3.051h1.104c.275 0 .498.214.498.476a.488.488 0 0 1-.498.476h-1.666zm2.886.07a.52.52 0 0 1-.52-.52v-3.553a.52.52 0 0 1 1.039 0v1.116l1.449-1.449a.403.403 0 0 1 .288-.116c.13 0 .26.056.358.154.09.09.145.208.152.33a.405.405 0 0 1-.114.315l-1.184 1.184 1.278 1.693a.515.515 0 0 1-.101.728.515.515 0 0 1-.727-.102l-1.219-1.614-.18.18v1.134a.52.52 0 0 1-.52.52z" fill="#FFF"/></g></g></svg><svg width="32" height="32" viewBox="0 0 32 32" id="LINE" x="64" y="64" xmlns="http://www.w3.org/2000/svg"><g fill="none" fill-rule="evenodd"><circle fill="#00C300" cx="16" cy="16" r="16"/><path d="M21.524 14.391a.474.474 0 0 1 0 .945h-1.316v.844h1.316a.472.472 0 1 1 0 .945h-1.789a.473.473 0 0 1-.47-.473v-3.577c0-.259.211-.473.472-.473h1.789a.473.473 0 0 1-.002.945h-1.317v.844h1.317zm-2.892 2.261a.474.474 0 0 1-.473.47.465.465 0 0 1-.383-.187l-1.832-2.487v2.205c0 .258-.21.472-.473.472a.472.472 0 0 1-.469-.472v-3.578a.47.47 0 0 1 .468-.471c.146 0 .281.078.371.19l1.847 2.497v-2.216a.473.473 0 0 1 .945 0v3.578zm-4.306 0a.474.474 0 0 1-.472.473.473.473 0 0 1-.47-.473v-3.577c0-.259.21-.473.472-.473.259 0 .47.214.47.473v3.577zm-1.85.473h-1.788a.475.475 0 0 1-.473-.473v-3.577c0-.259.214-.473.473-.473.26 0 .472.214.472.473v3.105h1.317a.472.472 0 1 1 0 .945zM25 14.729c0-4.028-4.039-7.306-9-7.306s-9 3.278-9 7.306c0 3.609 3.202 6.633 7.526 7.205.293.063.692.194.793.444.09.225.06.573.03.81l-.124.765c-.034.225-.18.888.787.483.968-.405 5.187-3.06 7.077-5.23C24.38 17.788 25 16.337 25 14.728z" fill="#FFF"/></g></svg><svg width="32" height="32" viewBox="0 0 32 32" id="LINE_hc" x="96" xmlns="http://www.w3.org/2000/svg"><g fill="none" fill-rule="evenodd"><circle fill="#FFF" cx="16" cy="16" r="16"/><path d="M21.524 14.391a.474.474 0 0 1 0 .945h-1.316v.844h1.316a.472.472 0 1 1 0 .945h-1.789a.473.473 0 0 1-.47-.473v-3.577c0-.259.211-.473.472-.473h1.789a.473.473 0 0 1-.002.945h-1.317v.844h1.317zm-2.892 2.261a.474.474 0 0 1-.473.47.465.465 0 0 1-.383-.187l-1.832-2.487v2.204c0 .26-.21.473-.473.473a.472.472 0 0 1-.469-.473v-3.577a.47.47 0 0 1 .468-.471c.146 0 .281.078.371.19l1.847 2.497v-2.216c0-.259.211-.473.472-.473.259 0 .473.214.473.473v3.578zm-4.306 0a.474.474 0 0 1-.473.473.473.473 0 0 1-.47-.473v-3.577c0-.259.212-.473.473-.473.258 0 .47.214.47.473v3.578zm-1.85.473h-1.788a.475.475 0 0 1-.473-.473v-3.577c0-.259.214-.473.473-.473.26 0 .472.214.472.473v3.105h1.316a.472.472 0 1 1 0 .945zM25 14.729c0-4.028-4.039-7.306-9-7.306s-9 3.278-9 7.306c0 3.609 3.202 6.633 7.526 7.205.293.063.692.194.793.444.09.225.06.573.03.81l-.124.765c-.034.225-.18.888.787.483.968-.405 5.187-3.06 7.077-5.23C24.38 17.788 25 16.336 25 14.728z" fill="#00C300"/></g></svg><svg width="32" height="32" viewBox="0 0 32 32" id="LINKEDIN" x="96" y="32" xmlns="http://www.w3.org/2000/svg"><g fill="none" fill-rule="evenodd"><circle fill="#007BB6" cx="16" cy="16" r="16"/><path d="M11.09 12.824v11.613H7.223V12.824h3.867zm.246-3.586c.012 1.113-.832 2.004-2.18 2.004h-.023c-1.3 0-2.133-.891-2.133-2.004 0-1.137.867-2.004 2.18-2.004 1.324 0 2.144.867 2.156 2.004zM25 17.781v6.656h-3.856v-6.21c0-1.559-.562-2.625-1.957-2.625-1.066 0-1.699.714-1.98 1.406-.094.258-.13.598-.13.95v6.48h-3.855c.047-10.523 0-11.613 0-11.613h3.856v1.688h-.024c.504-.797 1.419-1.957 3.504-1.957 2.544 0 4.442 1.664 4.442 5.227v-.002z" fill="#FFF"/></g></svg><svg width="32" height="32" viewBox="0 0 32 32" id="LINKEDIN_hc" x="96" y="64" xmlns="http://www.w3.org/2000/svg"><g fill="none" fill-rule="evenodd"><circle fill="#FFF" cx="16" cy="16" r="16"/><path d="M11.09 12.824v11.613H7.223V12.824h3.867zm.246-3.586c.012 1.113-.832 2.004-2.18 2.004h-.023c-1.3 0-2.133-.891-2.133-2.004 0-1.137.867-2.004 2.18-2.004 1.324 0 2.144.867 2.156 2.004zM25 17.781v6.656h-3.856v-6.21c0-1.559-.562-2.625-1.957-2.625-1.066 0-1.699.714-1.98 1.406-.094.258-.13.598-.13.95v6.48h-3.855c.047-10.523 0-11.613 0-11.613h3.856v1.688h-.024c.504-.797 1.419-1.957 3.504-1.957 2.544 0 4.442 1.664 4.442 5.227v-.002z" fill="#007BB6"/></g></svg><svg width="32" height="32" viewBox="0 0 32 32" id="PINTEREST" y="96" xmlns="http://www.w3.org/2000/svg"><g fill="none" fill-rule="evenodd"><circle fill="#CB2027" cx="16" cy="16" r="16"/><path d="M9.332 13.458C9.332 9.466 12.988 7 16.688 7c3.397 0 6.49 2.337 6.49 5.917 0 3.364-1.72 7.096-5.55 7.096-.908 0-2.055-.454-2.498-1.298-.822 3.256-.757 3.743-2.574 6.231l-.152.054-.098-.108c-.065-.681-.162-1.352-.162-2.034 0-2.206 1.017-5.398 1.515-7.54-.27-.552-.346-1.223-.346-1.828 0-1.093.757-2.477 1.99-2.477.91 0 1.396.692 1.396 1.546 0 1.406-.952 2.727-.952 4.089 0 .93.768 1.58 1.666 1.58 2.488 0 3.256-3.592 3.256-5.507 0-2.563-1.817-3.96-4.273-3.96-2.856 0-5.063 2.056-5.063 4.955 0 1.396.854 2.11.854 2.445 0 .28-.205 1.276-.562 1.276-.054 0-.13-.021-.184-.032-1.547-.466-2.11-2.531-2.11-3.949l.001.002z" fill="#FFF"/></g></svg><svg width="32" height="32" viewBox="0 0 32 32" id="PINTEREST_hc" x="32" y="96" xmlns="http://www.w3.org/2000/svg"><g fill="none" fill-rule="evenodd"><circle fill="#FFF" cx="16" cy="16" r="16"/><path d="M9.332 13.458C9.332 9.466 12.988 7 16.688 7c3.397 0 6.49 2.337 6.49 5.917 0 3.364-1.72 7.096-5.55 7.096-.908 0-2.055-.454-2.498-1.298-.822 3.256-.757 3.743-2.574 6.231l-.152.054-.098-.108c-.065-.681-.162-1.352-.162-2.034 0-2.206 1.017-5.398 1.515-7.54-.27-.552-.346-1.223-.346-1.828 0-1.093.757-2.477 1.99-2.477.91 0 1.396.692 1.396 1.546 0 1.406-.952 2.727-.952 4.089 0 .93.768 1.58 1.666 1.58 2.488 0 3.256-3.592 3.256-5.507 0-2.563-1.817-3.96-4.273-3.96-2.856 0-5.063 2.056-5.063 4.955 0 1.396.854 2.11.854 2.445 0 .28-.205 1.276-.562 1.276-.054 0-.13-.021-.184-.032-1.547-.466-2.11-2.531-2.11-3.949l.001.002z" fill="#CB2027"/></g></svg><svg width="32" height="32" viewBox="0 0 32 32" id="SNAPCHAT" x="64" y="96" xmlns="http://www.w3.org/2000/svg"><g fill="none" fill-rule="evenodd"><circle fill="#E7E400" cx="16" cy="16" r="16"/><path d="M16.155 8.48c.662 0 2.903.185 3.96 2.552.354.797.27 2.15.2 3.237l-.002.04c-.008.12-.015.23-.02.34.05.03.135.06.268.06.2-.01.44-.08.69-.2.11-.06.23-.07.31-.07.12 0 .24.02.34.06.3.1.49.32.49.56.01.3-.26.56-.81.78-.06.02-.14.05-.23.08-.3.09-.76.24-.89.54-.06.15-.04.35.08.58l.01.01c.04.09 1.02 2.32 3.2 2.68.17.03.29.18.28.34 0 .05-.01.1-.03.15-.16.38-.85.66-2.1.85-.04.06-.08.25-.11.38-.02.12-.05.24-.09.37-.05.18-.18.27-.37.27h-.02c-.09 0-.21-.02-.36-.05-.24-.05-.51-.09-.85-.09-.2 0-.4.01-.61.05-.4.07-.75.31-1.15.59-.57.4-1.22.86-2.2.86-.04 0-.08-.01-.12-.01h-.1c-.98 0-1.62-.45-2.19-.86-.4-.28-.74-.52-1.14-.59-.21-.03-.42-.05-.62-.05-.36 0-.64.06-.85.1-.14.03-.26.05-.36.05-.25 0-.35-.15-.39-.28-.04-.13-.06-.26-.09-.38s-.07-.33-.11-.38C8.89 20.9 8.2 20.62 8.04 20.23a.413.413 0 0 1-.036-.15.332.332 0 0 1 .28-.34c2.18-.36 3.16-2.59 3.2-2.684l.01-.02c.12-.23.15-.43.08-.58-.13-.29-.59-.44-.89-.54-.08-.02-.16-.05-.23-.08-.74-.29-.84-.62-.8-.85.06-.32.45-.53.78-.53.097 0 .18.02.256.05.28.13.527.2.737.2a.63.63 0 0 0 .31-.07l-.03-.38c-.065-1.086-.15-2.438.205-3.23C12.94 8.67 15.175 8.49 15.835 8.49l.28-.01h.04z" fill="#FFF"/></g></svg><svg width="32" height="32" viewBox="0 0 32 32" id="SNAPCHAT_hc" xmlns="http://www.w3.org/2000/svg"><g fill="none" fill-rule="evenodd"><circle fill="#FFF" cx="16" cy="16" r="16"/><path d="M16.155 8.48c.662 0 2.903.185 3.96 2.552.354.797.27 2.15.2 3.237l-.002.04c-.008.12-.015.23-.02.34.05.03.135.06.268.06.2-.01.44-.08.69-.2.11-.06.23-.07.31-.07.12 0 .24.02.34.06.3.1.49.32.49.56.01.3-.26.56-.81.78-.06.02-.14.05-.23.08-.3.09-.76.24-.89.54-.06.15-.04.35.08.58l.01.01c.04.09 1.02 2.32 3.2 2.68.17.03.29.18.28.34 0 .05-.01.1-.03.15-.16.38-.85.66-2.1.85-.04.06-.08.25-.11.38-.02.12-.05.24-.09.37-.05.18-.18.27-.37.27h-.02c-.09 0-.21-.02-.36-.05-.24-.05-.51-.09-.85-.09-.2 0-.4.01-.61.05-.4.07-.75.31-1.15.59-.57.4-1.22.86-2.2.86-.04 0-.08-.01-.12-.01h-.1c-.98 0-1.62-.45-2.19-.86-.4-.28-.74-.52-1.14-.59-.21-.03-.42-.05-.62-.05-.36 0-.64.06-.85.1-.14.03-.26.05-.36.05-.25 0-.35-.15-.39-.28-.04-.13-.06-.26-.09-.38s-.07-.33-.11-.38C8.89 20.9 8.2 20.62 8.04 20.23a.413.413 0 0 1-.036-.15.332.332 0 0 1 .28-.34c2.18-.36 3.16-2.59 3.2-2.684l.01-.02c.12-.23.15-.43.08-.58-.13-.29-.59-.44-.89-.54-.08-.02-.16-.05-.23-.08-.74-.29-.84-.62-.8-.85.06-.32.45-.53.78-.53.097 0 .18.02.256.05.28.13.527.2.737.2a.63.63 0 0 0 .31-.07l-.03-.38c-.065-1.086-.15-2.438.205-3.23C12.94 8.67 15.175 8.49 15.835 8.49l.28-.01h.04z" fill="#E7E400"/></g></svg><svg width="32" height="32" viewBox="0 0 32 32" id="TRIPADVISOR" x="128" xmlns="http://www.w3.org/2000/svg"><g fill="none" fill-rule="evenodd"><circle fill="#589442" cx="16" cy="16" r="16"/><path d="M24.115 13.771c.21-.905.88-1.811.88-1.811h-3.008c-1.687-1.091-3.735-1.669-6.007-1.669-2.355 0-4.482.585-6.16 1.688H7s.664.889.877 1.789a4.5 4.5 0 0 0-.875 2.667 4.511 4.511 0 0 0 4.508 4.506 4.51 4.51 0 0 0 3.51-1.691l.956 1.436.968-1.45a4.51 4.51 0 0 0 5.096 1.44 4.527 4.527 0 0 0 2.666-5.795 4.415 4.415 0 0 0-.607-1.113l.016.003zm-2.377 6.052a3.566 3.566 0 0 1-4.244-1.4 3.484 3.484 0 0 1-.377-.728 3.59 3.59 0 0 1-.193-.911 3.59 3.59 0 0 1 .303-1.84 3.604 3.604 0 0 1 6.649.259 3.607 3.607 0 0 1-2.126 4.622l-.012-.002zm-7.25-1.374a3.6 3.6 0 0 1-2.979 1.584 3.605 3.605 0 0 1-3.6-3.597c0-1.98 1.617-3.6 3.6-3.6a3.606 3.606 0 0 1 3.598 3.6c0 .124-.023.236-.036.36a3.6 3.6 0 0 1-.583 1.665v-.012zM9.223 16.39a2.23 2.23 0 0 0 2.227 2.228 2.228 2.228 0 0 0 2.226-2.228 2.227 2.227 0 0 0-4.452 0h-.001zm9.034 0c0 1.23.996 2.228 2.225 2.228a2.225 2.225 0 1 0-2.227-2.227l.002-.001zm-8.266 0c0-.803.653-1.457 1.452-1.457.798 0 1.462.655 1.462 1.457a1.462 1.462 0 1 1-2.925 0h.011zm9.023 0a1.457 1.457 0 0 1 2.914 0 1.462 1.462 0 1 1-2.925 0h.01zm-3.038-5.312c1.62 0 3.083.292 4.365.872a4.49 4.49 0 0 0-1.428.27 4.424 4.424 0 0 0-2.532 2.343 4.445 4.445 0 0 0-.405 1.55 4.518 4.518 0 0 0-4.41-4.184c1.283-.55 2.768-.851 4.377-.851h.033z" fill="#FFF"/></g></svg><svg width="32" height="32" viewBox="0 0 32 32" id="TRIPADVISOR_hc" x="128" y="32" xmlns="http://www.w3.org/2000/svg"><g fill="none" fill-rule="evenodd"><circle fill="#FFF" cx="16" cy="16" r="16"/><path d="M24.115 13.771c.21-.905.88-1.811.88-1.811h-3.008c-1.687-1.092-3.735-1.669-6.007-1.669-2.355 0-4.482.585-6.16 1.688H7s.664.889.878 1.789a4.5 4.5 0 0 0-.876 2.667 4.511 4.511 0 0 0 4.508 4.506 4.51 4.51 0 0 0 3.51-1.691l.956 1.436.968-1.45a4.51 4.51 0 0 0 5.096 1.44 4.527 4.527 0 0 0 2.666-5.795 4.415 4.415 0 0 0-.607-1.113l.016.003zm-2.377 6.052a3.566 3.566 0 0 1-4.244-1.4 3.484 3.484 0 0 1-.377-.728 3.59 3.59 0 0 1-.193-.911 3.59 3.59 0 0 1 .303-1.84 3.604 3.604 0 0 1 6.649.259 3.607 3.607 0 0 1-2.126 4.622l-.012-.002zm-7.25-1.374a3.6 3.6 0 0 1-2.979 1.584 3.605 3.605 0 0 1-3.6-3.597c0-1.98 1.617-3.6 3.6-3.6a3.606 3.606 0 0 1 3.598 3.6c0 .124-.023.236-.036.36a3.6 3.6 0 0 1-.583 1.665v-.012zM9.223 16.39a2.23 2.23 0 0 0 2.227 2.227 2.228 2.228 0 0 0 2.226-2.227 2.227 2.227 0 0 0-4.452 0h-.001zm9.034 0c0 1.23.996 2.227 2.225 2.227a2.225 2.225 0 1 0-2.227-2.227h.002zm-8.266 0c0-.803.653-1.457 1.452-1.457.798 0 1.462.655 1.462 1.457a1.462 1.462 0 1 1-2.925 0h.011zm9.023 0a1.457 1.457 0 0 1 2.914 0 1.462 1.462 0 1 1-2.925 0h.01zm-3.038-5.312c1.62 0 3.083.292 4.365.872a4.49 4.49 0 0 0-1.428.27 4.424 4.424 0 0 0-2.532 2.343 4.445 4.445 0 0 0-.405 1.55 4.518 4.518 0 0 0-4.41-4.184c1.283-.55 2.768-.851 4.377-.851h.033z" fill="#589442"/></g></svg><svg width="32" height="32" viewBox="0 0 32 32" id="TWITTER" x="128" y="64" xmlns="http://www.w3.org/2000/svg"><g fill="none" fill-rule="evenodd"><circle fill="#00ACED" cx="16" cy="16" r="16"/><path d="M24.879 11.059a7.825 7.825 0 0 1-1.825 1.881c.011.158.011.316.011.473 0 4.812-3.662 10.356-10.355 10.356-2.062 0-3.978-.598-5.589-1.635.293.034.575.046.88.046a7.293 7.293 0 0 0 4.518-1.555 3.646 3.646 0 0 1-3.403-2.524c.226.034.45.056.687.056.327 0 .653-.045.958-.124a3.64 3.64 0 0 1-2.919-3.572v-.045a3.68 3.68 0 0 0 1.645.462 3.637 3.637 0 0 1-1.622-3.03c0-.677.18-1.297.496-1.838a10.344 10.344 0 0 0 7.504 3.809 4.116 4.116 0 0 1-.09-.834 3.638 3.638 0 0 1 3.64-3.64 3.63 3.63 0 0 1 2.659 1.15 7.17 7.17 0 0 0 2.31-.88 3.629 3.629 0 0 1-1.6 2.006 7.297 7.297 0 0 0 2.095-.563z" fill="#FFF"/></g></svg><svg width="32" height="32" viewBox="0 0 32 32" id="TWITTER_hc" x="128" y="96" xmlns="http://www.w3.org/2000/svg"><g fill="none" fill-rule="evenodd"><circle fill="#FFF" cx="16" cy="16" r="16"/><path d="M24.879 11.059a7.825 7.825 0 0 1-1.825 1.881c.011.158.011.316.011.473 0 4.812-3.662 10.356-10.355 10.356-2.062 0-3.978-.598-5.589-1.635.293.034.575.046.88.046a7.293 7.293 0 0 0 4.518-1.555 3.646 3.646 0 0 1-3.403-2.524c.226.034.45.056.687.056.327 0 .653-.045.958-.124a3.64 3.64 0 0 1-2.919-3.572v-.045a3.68 3.68 0 0 0 1.645.462 3.637 3.637 0 0 1-1.622-3.03c0-.677.18-1.297.496-1.838a10.344 10.344 0 0 0 7.504 3.809 4.116 4.116 0 0 1-.09-.834 3.638 3.638 0 0 1 3.64-3.64c1.047 0 1.994.44 2.659 1.15a7.17 7.17 0 0 0 2.31-.88 3.629 3.629 0 0 1-1.6 2.006 7.297 7.297 0 0 0 2.095-.563z" fill="#00ACED"/></g></svg><svg width="32" height="32" viewBox="0 0 32 32" id="WECHAT" y="128" xmlns="http://www.w3.org/2000/svg"><g fill="none" fill-rule="evenodd"><circle fill="#7BB32E" cx="16" cy="16" r="16"/><path d="M24.654 17.03c-.456-1.035-1.318-1.856-2.317-2.362-1.766-.895-3.962-.89-5.722.022-1.224.628-2.244 1.753-2.534 3.122-.24 1.008-.025 2.093.51 2.97.795 1.322 2.232 2.166 3.726 2.436 1.084.22 2.203.09 3.255-.214.63.245 1.192.641 1.806.934a38.288 38.288 0 0 0-.507-1.575c.687-.489 1.309-1.096 1.683-1.859a4.033 4.033 0 0 0 .102-3.473h-.002zm-7.441-7.099c-1.871-1.053-4.202-1.211-6.215-.483-1.322.476-2.52 1.36-3.26 2.565-.67 1.088-.922 2.443-.598 3.687.324 1.38 1.283 2.537 2.446 3.31a59.771 59.771 0 0 0-.641 1.916c.731-.382 1.462-.782 2.194-1.17a8.155 8.155 0 0 0 2.745.388 4.623 4.623 0 0 1-.192-2.214c.17-1.028.732-1.969 1.497-2.666 1.293-1.21 3.127-1.721 4.87-1.598-.325-1.6-1.45-2.954-2.868-3.735h.022zm1.298 7.493c-.155.488-.866.636-1.21.263-.38-.344-.232-1.064.265-1.217.551-.233 1.187.403.945.954zm3.596.067c-.19.441-.855.543-1.18.203-.158-.143-.203-.358-.26-.548.08-.343.315-.7.698-.715.529-.074 1.001.579.731 1.06h.011zm-5.365-4.84c.006.72-.956 1.17-1.496.682-.56-.401-.402-1.378.257-1.58.588-.236 1.284.259 1.237.889l.002.01zm-4.545.183c-.128.627-.967.93-1.459.508-.57-.4-.41-1.395.259-1.597.655-.252 1.398.413 1.201 1.089z" fill="#FFF"/></g></svg><svg width="32" height="32" viewBox="0 0 32 32" id="WECHAT_hc" x="32" y="128" xmlns="http://www.w3.org/2000/svg"><g fill="none" fill-rule="evenodd"><circle fill="#FFF" cx="16" cy="16" r="16"/><path d="M24.654 17.03c-.456-1.035-1.318-1.856-2.317-2.362-1.766-.895-3.962-.89-5.722.022-1.224.628-2.244 1.753-2.534 3.122-.24 1.008-.025 2.093.51 2.97.795 1.322 2.232 2.166 3.726 2.436 1.084.22 2.203.09 3.255-.214.63.245 1.192.641 1.806.934a38.288 38.288 0 0 0-.507-1.575c.687-.489 1.309-1.096 1.683-1.859a4.033 4.033 0 0 0 .102-3.473h-.002zm-7.441-7.099c-1.871-1.053-4.202-1.211-6.215-.483-1.322.476-2.52 1.36-3.26 2.565-.67 1.088-.922 2.443-.598 3.687.324 1.38 1.283 2.537 2.446 3.31a59.771 59.771 0 0 0-.641 1.916c.731-.382 1.462-.782 2.194-1.17a8.155 8.155 0 0 0 2.745.388 4.623 4.623 0 0 1-.192-2.214c.17-1.028.732-1.969 1.497-2.666 1.293-1.21 3.127-1.721 4.87-1.598-.325-1.6-1.45-2.954-2.868-3.735h.022zm1.298 7.493c-.155.488-.866.636-1.21.263-.38-.344-.232-1.064.265-1.217.551-.233 1.187.403.945.954zm3.596.067c-.19.441-.855.543-1.18.203-.158-.143-.203-.358-.26-.548.08-.343.315-.7.698-.715.529-.074 1.001.579.731 1.06h.011zm-5.365-4.84c.006.72-.956 1.17-1.496.682-.56-.401-.402-1.378.257-1.58.588-.236 1.284.259 1.237.889l.002.01zm-4.545.183c-.128.627-.967.93-1.459.508-.57-.4-.41-1.395.259-1.597.655-.252 1.398.413 1.201 1.089z" fill="#7BB32E"/></g></svg><svg width="32" height="32" viewBox="0 0 32 32" id="WEIBO" x="64" y="128" xmlns="http://www.w3.org/2000/svg"><g fill="none" fill-rule="evenodd"><circle fill="#E6162D" cx="16" cy="16" r="16"/><path d="M14.56 22.099c-2.978.292-5.55-1.053-5.744-3.01-.194-1.954 2.065-3.78 5.046-4.075 2.98-.294 5.551 1.052 5.745 3.009.193 1.946-2.066 3.78-5.046 4.072l-.001.004zm-.784-2.325c-.288.462-.905.662-1.37.45-.458-.209-.593-.742-.304-1.192.283-.446.88-.645 1.342-.45.467.197.615.728.332 1.192zm.95-1.218c-.104.178-.335.263-.515.189-.178-.068-.234-.27-.133-.439.104-.169.327-.259.503-.18.18.068.237.27.135.45l.01-.02zm.133-2.036c-1.417-.37-3.02.337-3.637 1.586-.627 1.276-.02 2.689 1.412 3.152 1.485.48 3.233-.254 3.842-1.631.6-1.343-.15-2.728-1.617-3.107zm5.662-.916c-.258-.079-.427-.135-.303-.461.28-.732.315-1.35 0-1.8-.585-.833-2.183-.788-4.017-.023 0 0-.573.248-.427-.202.281-.912.236-1.665-.203-2.104-1-1.001-3.645.034-5.906 2.306C7.98 15.02 7 16.82 7 18.372c0 2.982 3.817 4.79 7.552 4.79 4.894 0 8.152-2.847 8.152-5.108 0-1.364-1.159-2.137-2.183-2.46v.01zm1.43-3.814a2.32 2.32 0 0 0-2.217-.72.588.588 0 0 0-.461.698.59.59 0 0 0 .697.45 1.13 1.13 0 0 1 1.316 1.451.59.59 0 0 0 .383.742.608.608 0 0 0 .742-.382 2.326 2.326 0 0 0-.483-2.273l.022.034zm1.81-1.642a4.762 4.762 0 0 0-4.533-1.474.682.682 0 0 0-.53.81.682.682 0 0 0 .81.529 3.373 3.373 0 0 1 3.218 1.035 3.399 3.399 0 0 1 .71 3.307.68.68 0 0 0 .438.866.685.685 0 0 0 .866-.438 4.784 4.784 0 0 0-1.001-4.67l.022.035z" fill="#FFF"/></g></svg><svg width="32" height="32" viewBox="0 0 32 32" id="WEIBO_hc" x="96" y="128" xmlns="http://www.w3.org/2000/svg"><g fill="none" fill-rule="evenodd"><circle fill="#FFF" cx="16" cy="16" r="16"/><path d="M14.56 22.099c-2.978.292-5.55-1.053-5.744-3.01-.194-1.954 2.065-3.78 5.046-4.075 2.98-.294 5.551 1.052 5.745 3.009.193 1.946-2.066 3.78-5.046 4.072l-.001.004zm-.784-2.325c-.288.461-.905.662-1.37.45-.458-.209-.593-.742-.304-1.192.283-.446.88-.645 1.342-.45.467.197.615.728.332 1.192zm.95-1.218c-.104.178-.335.263-.515.189-.178-.068-.234-.27-.133-.439.104-.169.327-.259.503-.18.18.068.237.27.135.45l.01-.02zm.133-2.036c-1.417-.37-3.02.337-3.637 1.586-.627 1.276-.02 2.689 1.412 3.152 1.485.48 3.233-.254 3.842-1.631.6-1.343-.15-2.728-1.617-3.107zm5.662-.916c-.258-.079-.427-.135-.303-.461.28-.732.315-1.35 0-1.8-.585-.833-2.183-.788-4.017-.023 0 0-.573.248-.427-.202.281-.912.236-1.665-.203-2.104-1-1.001-3.645.034-5.906 2.306C7.98 15.02 7 16.82 7 18.372c0 2.982 3.817 4.79 7.552 4.79 4.894 0 8.152-2.847 8.152-5.108 0-1.364-1.159-2.137-2.183-2.46v.01zm1.43-3.814a2.32 2.32 0 0 0-2.217-.72.588.588 0 0 0-.461.698.59.59 0 0 0 .697.45 1.13 1.13 0 0 1 1.316 1.451.59.59 0 0 0 .383.742.608.608 0 0 0 .742-.382 2.326 2.326 0 0 0-.483-2.273l.022.034zm1.81-1.642a4.762 4.762 0 0 0-4.533-1.474.682.682 0 0 0-.53.81.682.682 0 0 0 .81.529 3.373 3.373 0 0 1 3.218 1.035 3.399 3.399 0 0 1 .71 3.307.68.68 0 0 0 .438.866.685.685 0 0 0 .866-.438 4.784 4.784 0 0 0-1.001-4.67l.022.035z" fill="#E6162D"/></g></svg><svg width="32" height="32" viewBox="0 0 32 32" id="YELP" x="128" y="128" xmlns="http://www.w3.org/2000/svg"><g fill="none" fill-rule="evenodd"><circle fill="#C41200" cx="16" cy="16" r="16"/><path d="M10.466 15.451l3.483 1.699c.67.327.567 1.312-.156 1.492l-3.76.938a.8.8 0 0 1-.988-.687 6.874 6.874 0 0 1 .314-2.98.798.798 0 0 1 1.107-.462m1.395 7.17l2.592-2.879c.499-.554 1.418-.183 1.392.562l-.136 3.874a.8.8 0 0 1-.931.76 6.935 6.935 0 0 1-2.776-1.124.799.799 0 0 1-.141-1.193m6.147-3.831l3.685 1.197a.799.799 0 0 1 .474 1.103 6.939 6.939 0 0 1-1.842 2.362.8.8 0 0 1-1.187-.193l-2.054-3.287c-.395-.632.215-1.413.924-1.182m3.747-2.351l-3.725 1.068c-.717.205-1.299-.596-.882-1.214l2.167-3.213a.799.799 0 0 1 1.19-.154 6.875 6.875 0 0 1 1.762 2.424.8.8 0 0 1-.512 1.089M13.051 7.4c-.67.18-1.31.417-1.915.705a.798.798 0 0 0-.345 1.12l3.64 6.306c.409.707 1.49.417 1.49-.4v-7.28a.799.799 0 0 0-.859-.798 11.16 11.16 0 0 0-2.011.347" fill="#FFF"/></g></svg><svg width="32" height="32" viewBox="0 0 32 32" id="YELP_hc" x="160" xmlns="http://www.w3.org/2000/svg"><g fill="none" fill-rule="evenodd"><circle fill="#FFF" cx="16" cy="16" r="16"/><path d="M10.466 15.451l3.483 1.699c.67.327.567 1.312-.156 1.492l-3.76.938a.8.8 0 0 1-.988-.687 6.874 6.874 0 0 1 .314-2.98.798.798 0 0 1 1.107-.462m1.395 7.17l2.592-2.879c.499-.554 1.418-.183 1.392.562l-.136 3.874a.8.8 0 0 1-.931.76 6.935 6.935 0 0 1-2.776-1.124.799.799 0 0 1-.141-1.193m6.147-3.831l3.685 1.197a.799.799 0 0 1 .474 1.103 6.939 6.939 0 0 1-1.842 2.362.8.8 0 0 1-1.187-.193l-2.054-3.287c-.395-.632.215-1.413.924-1.182m3.747-2.351l-3.725 1.068c-.717.205-1.299-.596-.882-1.214l2.167-3.213a.799.799 0 0 1 1.19-.154 6.875 6.875 0 0 1 1.762 2.424.8.8 0 0 1-.512 1.089M13.051 7.4c-.67.18-1.31.417-1.915.705a.798.798 0 0 0-.345 1.12l3.64 6.306c.409.707 1.49.417 1.49-.4v-7.28a.799.799 0 0 0-.859-.798 11.16 11.16 0 0 0-2.011.347" fill="#C41200"/></g></svg><svg width="32" height="32" viewBox="0 0 32 32" id="YOUKU" x="160" y="32" xmlns="http://www.w3.org/2000/svg"><g fill="none" fill-rule="evenodd"><circle fill="#30A4FF" cx="16" cy="16" r="16"/><path d="M15.093 10c-.275 0-.55.074-.788.237-.522.361-.812 1.472-1.162 2.263-.386.87-.725 1.748-1.101 2.387-1.017-1.154-1.711-3.712-2.936-4.65-.395-.302-1.262-.293-1.652 0-1.056.795.003 2.2.428 2.937.932 1.616 1.965 3.346 2.753 4.832-.513 1.352-3.1 5.17.367 4.955.84-.542 1.195-1.67 1.651-2.692.934-2.09 1.727-3.895 2.692-6.055.401-.899 1.368-2.226 1.163-3.243-.115-.567-.763-.972-1.415-.971zm8.39.829c-.5.005-1.007.24-1.225.693-.362.413-.75.8-1.163 1.162a4.17 4.17 0 0 1-.673.672c-.29.303-.525.658-.917.858v-2.386c-.01-1.298-2.438-1.298-2.447 0v6.79c.106.485.326.855.856.917h.735c.503-.087.79-.392.856-.917V17.15c0-.51-.096-1.368.244-.857.499.488 1.2 1.013 1.836 1.59.61.556 1.193 1.453 1.835 1.59 1.313.282 1.893-.979 1.407-1.895-.514-.969-1.993-1.589-2.63-2.447.43-.984 2.766-1.588 2.568-3.303-.077-.678-.676-1.005-1.281-.999z" fill="#FFF" fill-rule="nonzero"/></g></svg><svg width="32" height="32" viewBox="0 0 32 32" id="YOUKU_hc" x="160" y="64" xmlns="http://www.w3.org/2000/svg"><g fill="none" fill-rule="evenodd"><circle fill="#FFF" cx="16" cy="16" r="16"/><path d="M15.093 10c-.275 0-.55.074-.788.237-.522.361-.812 1.472-1.162 2.263-.386.87-.725 1.748-1.101 2.387-1.017-1.154-1.711-3.712-2.936-4.65-.395-.302-1.262-.293-1.652 0-1.056.795.003 2.2.428 2.937.932 1.616 1.965 3.346 2.753 4.832-.513 1.352-3.1 5.17.367 4.955.84-.542 1.195-1.67 1.651-2.692.934-2.09 1.727-3.895 2.692-6.055.401-.899 1.368-2.226 1.163-3.243-.115-.567-.763-.972-1.415-.971zm8.39.829c-.5.005-1.007.24-1.225.693-.362.413-.75.8-1.163 1.162a4.17 4.17 0 0 1-.673.672c-.29.303-.525.658-.917.858v-2.386c-.01-1.298-2.438-1.298-2.447 0v6.79c.106.485.326.855.856.917h.735c.503-.087.79-.392.856-.917V17.15c0-.51-.096-1.368.244-.857.499.488 1.2 1.013 1.836 1.59.61.556 1.193 1.453 1.835 1.59 1.313.282 1.893-.979 1.407-1.895-.514-.969-1.993-1.589-2.63-2.447.43-.984 2.766-1.588 2.568-3.303-.077-.678-.676-1.005-1.281-.999z" fill="#30A4FF" fill-rule="nonzero"/></g></svg><svg width="32" height="32" viewBox="0 0 32 32" id="YOUTUBE" x="160" y="96" xmlns="http://www.w3.org/2000/svg"><g fill="none" fill-rule="evenodd"><circle fill="#B00" cx="16" cy="16" r="16"/><path d="M14.142 18.759l4.86-2.511-4.86-2.541v5.052zM16 10.1c3.787 0 6.298.18 6.298.18.352.041 1.125.041 1.808.765 0 0 .552.542.713 1.787.19 1.457.18 2.913.18 2.913v1.366s.01 1.457-.18 2.913c-.161 1.236-.713 1.788-.713 1.788-.683.713-1.457.713-1.808.753 0 0-2.51.191-6.298.191-4.68-.04-6.117-.18-6.117-.18-.402-.07-1.306-.05-1.99-.764 0 0-.552-.552-.712-1.788C6.99 18.567 7 17.111 7 17.111v-1.366s-.01-1.456.18-2.913c.161-1.245.714-1.787.714-1.787.682-.724 1.456-.724 1.807-.764 0 0 2.511-.18 6.298-.18H16z" fill="#FFF"/></g></svg><svg width="32" height="32" viewBox="0 0 32 32" id="YOUTUBE_hc" x="160" y="128" xmlns="http://www.w3.org/2000/svg"><g fill="none" fill-rule="evenodd"><circle fill="#FFF" cx="16" cy="16" r="16"/><path d="M14.142 18.759l4.86-2.511-4.86-2.541v5.052zM16 10.1c3.787 0 6.298.18 6.298.18.352.041 1.125.041 1.808.765 0 0 .552.542.713 1.787.19 1.457.18 2.913.18 2.913v1.366s.01 1.457-.18 2.913c-.161 1.236-.713 1.788-.713 1.788-.683.713-1.457.713-1.808.753 0 0-2.51.191-6.298.191-4.68-.04-6.117-.18-6.117-.18-.402-.07-1.306-.05-1.99-.764 0 0-.552-.552-.712-1.788C6.99 18.567 7 17.111 7 17.111v-1.366s-.01-1.456.18-2.913c.161-1.245.714-1.787.714-1.787.682-.724 1.456-.724 1.807-.764 0 0 2.511-.18 6.298-.18H16z" fill="#B00"/></g></svg></svg>